HIERARCHY
ROOT Hips
{
	OFFSET 0.000000 0.000000 0.000000
	CHANNELS 6 Xposition Yposition Zposition Xrotation Yrotation Zrotation
	JOINT LeftUpLeg_virtual
	{
		OFFSET 0.000000 0.000000 0.000000
		CHANNELS 3 Xrotation Yrotation Zrotation
		JOINT LeftUpLeg
		{
			OFFSET 10.205400 -3.823500 0.155100
			CHANNELS 3 Xrotation Yrotation Zrotation
			JOINT LeftLeg
			{
				OFFSET 0.708757 -12.982077 0.567790
				CHANNELS 3 Xrotation Yrotation Zrotation
				JOINT LeftFoot
				{
					OFFSET -0.708756 -10.717838 -2.184338
					CHANNELS 3 Xrotation Yrotation Zrotation
					JOINT LeftToeBase
					{
						OFFSET 0.108149 -7.191104 7.560241
						CHANNELS 3 Xrotation Yrotation Zrotation
						JOINT LeftToe_End
						{
							OFFSET 0.070230 0.081724 4.490308
							CHANNELS 3 Xrotation Yrotation Zrotation
							End Site
							{
								OFFSET 0 0 0
							}
						}
					}
				}
			}
		}
	}
	JOINT RightUpLeg_virtual
	{
		OFFSET 0.000000 0.000000 0.000000
		CHANNELS 3 Xrotation Yrotation Zrotation
		JOINT RightUpLeg
		{
			OFFSET -10.205400 -3.823500 0.005500
			CHANNELS 3 Xrotation Yrotation Zrotation
			JOINT RightLeg
			{
				OFFSET -0.708756 -12.982134 0.610632
				CHANNELS 3 Xrotation Yrotation Zrotation
				JOINT RightFoot
				{
					OFFSET 0.708754 -10.717769 -1.945823
					CHANNELS 3 Xrotation Yrotation Zrotation
					JOINT RightToeBase
					{
						OFFSET -0.108140 -7.191069 7.372968
						CHANNELS 3 Xrotation Yrotation Zrotation
						JOINT RightToe_End
						{
							OFFSET -0.070227 0.081735 4.479403
							CHANNELS 3 Xrotation Yrotation Zrotation
							End Site
							{
								OFFSET 0 0 0
							}
						}
					}
				}
			}
		}
	}
	JOINT Spine_virtual
	{
		OFFSET 0.000000 0.000000 0.000000
		CHANNELS 3 Xrotation Yrotation Zrotation
		JOINT Spine
		{
			OFFSET 0.000000 6.876099 0.125700
			CHANNELS 3 Xrotation Yrotation Zrotation
			JOINT Spine1
			{
				OFFSET 0.000000 5.730043 0.104720
				CHANNELS 3 Xrotation Yrotation Zrotation
				JOINT Spine1_split
				{
					OFFSET 0.000000 5.730043 0.104720
					CHANNELS 3 Xrotation Yrotation Zrotation
					JOINT Spine2
					{
						OFFSET 0.000000 5.730043 0.104720
						CHANNELS 3 Xrotation Yrotation Zrotation
						JOINT Neck_virtual
						{
							OFFSET 0.000000 0.000000 0.000000
							CHANNELS 3 Xrotation Yrotation Zrotation
							JOINT Neck
							{
								OFFSET 0.000000 10.314075 0.188496
								CHANNELS 3 Xrotation Yrotation Zrotation
								JOINT Head
								{
									OFFSET 0.000000 7.643700 -2.377400
									CHANNELS 3 Xrotation Yrotation Zrotation
									JOINT HeadTop_End
									{
										OFFSET 0.000000 43.788605 -13.619600
										CHANNELS 3 Xrotation Yrotation Zrotation
										End Site
										{
											OFFSET 0 0 0
										}
									}
								}
							}
						}
						JOINT LeftShoulder_virtual
						{
							OFFSET 0.000000 0.000000 0.000000
							CHANNELS 3 Xrotation Yrotation Zrotation
							JOINT LeftShoulder
							{
								OFFSET 2.196100 4.412489 0.087492
								CHANNELS 3 Xrotation Yrotation Zrotation
								JOINT LeftShoulder_split
								{
									OFFSET 2.196100 4.412489 0.087492
									CHANNELS 3 Xrotation Yrotation Zrotation
									JOINT LeftArm
									{
										OFFSET 8.771219 -2.981674 -0.026999
										CHANNELS 3 Xrotation Yrotation Zrotation
										JOINT LeftForeArm
										{
											OFFSET 8.512804 0.000000 -0.000000
											CHANNELS 3 Xrotation Yrotation Zrotation
											JOINT LeftHand
											{
												OFFSET 18.484802 0.000000 -0.000000
												CHANNELS 3 Xrotation Yrotation Zrotation
												End Site
												{
													OFFSET 0 0 0
												}
											}
										}
									}
								}
							}
						}
						JOINT RightShoulder_virtual
						{
							OFFSET 0.000000 0.000000 0.000000
							CHANNELS 3 Xrotation Yrotation Zrotation
							JOINT RightShoulder
							{
								OFFSET -2.196100 4.412496 0.070690
								CHANNELS 3 Xrotation Yrotation Zrotation
								JOINT RightShoulder_split
								{
									OFFSET -2.196100 4.412496 0.070690
									CHANNELS 3 Xrotation Yrotation Zrotation
									JOINT RightArm
									{
										OFFSET -8.771282 -2.981682 -0.094208
										CHANNELS 3 Xrotation Yrotation Zrotation
										JOINT RightForeArm
										{
											OFFSET -8.494598 0.000000 0.000000
											CHANNELS 3 Xrotation Yrotation Zrotation
											JOINT RightHand
											{
												OFFSET -18.483803 0.000000 0.000001
												CHANNELS 3 Xrotation Yrotation Zrotation
												End Site
												{
													OFFSET 0 0 0
												}
											}
										}
									}
								}
							}
						}
					}
				}
			}
		}
	}
}
MOTION
Frames: 8
Frame Time: 0.03333333
-0.541680 26.848598 0.110504 0.000000 0.000000 0.000000 9.978195 -0.939364 -1.026765 21.084973 2.713656 11.123575 48.892997 -9.234281 16.502750 -42.528299 6.911797 -10.781087 -27.953866 -0.301818 -5.272947 0.000000 0.000000 0.000000 12.555245 3.585747 -2.276148 -62.252147 0.722035 -3.103377 71.211545 -4.029455 0.234809 -10.074184 4.173035 -13.373305 -2.580773 0.766698 -2.274384 0.000000 0.000000 0.000000 10.825828 0.432992 -1.014334 -0.166012 -5.842964 2.153055 2.819250 -2.485051 2.419998 1.054677 -1.746620 -0.241549 0.000000 0.000000 0.000000 3.041969 -2.779198 2.909371 -5.748032 1.456551 -1.058973 -17.895159 -10.168981 8.051032 0.000000 0.000000 0.000000 3.207949 -2.717022 1.847430 -0.245554 1.935794 -2.015560 -3.038041 2.747661 -2.532344 -18.517918 7.984725 -60.548773 -174.155672 -72.620873 -171.595211 0.000000 0.000000 0.000000 4.909711 -1.925020 2.644068 0.431871 -8.076508 15.940196 0.020091 6.822675 0.047037 -27.642004 8.117396 55.697987 -174.301879 56.362038 173.567319 0.000000 0.000000 0.000000 
-0.782984 27.528913 -0.334724 0.000000 0.000000 0.000000 10.079410 0.309647 -1.189195 19.085312 0.986147 10.539089 48.680623 -6.448204 14.855906 -34.607804 7.206971 -8.735690 -24.317633 0.532645 -7.521169 0.000000 0.000000 0.000000 11.777046 2.529127 -2.196521 -60.867729 0.476461 -4.673805 68.675517 -3.891129 0.385668 -9.334668 4.639228 -12.070130 -1.616537 0.956507 -2.050276 0.000000 0.000000 0.000000 10.923199 -0.273678 -1.197491 0.004179 -5.532542 2.996662 2.682873 -2.457015 2.153227 0.754172 -0.864378 -0.876147 0.000000 0.000000 0.000000 3.229559 -2.664782 2.549792 -5.125954 1.498491 -1.423317 -17.184321 -9.791135 8.299074 0.000000 0.000000 0.000000 3.355638 -2.687222 1.701603 -0.205737 0.920582 -1.384840 -2.705572 1.297824 -1.634744 -22.432643 6.653744 -60.046126 -173.371457 -73.915173 -170.764305 0.000000 0.000000 0.000000 5.060387 -1.835402 2.381736 0.490698 -7.648341 15.567176 -1.096770 6.852285 -0.906113 -31.271840 9.882934 55.197006 -175.188956 54.744021 174.358679 0.000000 0.000000 0.000000 
-0.801920 28.699697 -0.931402 0.000000 0.000000 0.000000 9.634172 2.145495 -2.019064 13.477178 1.476952 10.190284 48.340558 -3.002357 11.767420 -17.802159 6.684228 -5.220678 -12.822879 0.366275 -9.818925 0.000000 0.000000 0.000000 10.869511 1.615341 -2.625631 -57.159101 1.087535 -5.550522 60.649730 -2.851334 0.072255 -5.846170 4.940577 -10.124424 -0.929911 0.908648 -1.441094 0.000000 0.000000 0.000000 10.489913 -0.573547 -1.622866 0.748178 -4.619720 4.241953 2.515606 -2.201118 1.524093 0.652247 0.032481 -1.102164 0.000000 0.000000 0.000000 3.251050 -2.339270 1.813614 -4.173830 1.457017 -1.800567 -15.500354 -9.292936 8.580762 0.000000 0.000000 0.000000 3.451070 -2.364108 1.284279 -0.133720 -0.847829 -0.771067 -1.860066 0.536162 -1.076298 -29.012793 3.039456 -58.641040 -171.439169 -76.935866 -168.922490 0.000000 0.000000 0.000000 5.111099 -1.625310 1.757193 0.614827 -7.203613 14.407859 -1.327011 5.574745 -0.892439 -38.333877 13.129037 54.435081 -175.494881 55.768126 174.652691 0.000000 0.000000 0.000000 
-0.556874 30.098061 -1.541010 0.000000 0.000000 0.000000 8.882004 3.045470 -3.310251 5.327544 3.468802 10.460220 49.818078 0.197169 8.544081 4.794357 6.075162 -1.651492 -0.565399 -0.622361 -10.623042 0.000000 0.000000 0.000000 9.909370 1.575049 -3.673388 -51.301062 2.109917 -5.214352 50.026860 -1.542435 0.099018 0.117654 4.845347 -8.082657 -2.656408 0.444702 -0.619525 0.000000 0.000000 0.000000 9.572590 -0.170201 -2.363573 2.011453 -3.335095 5.542764 2.482950 -1.772108 0.788679 0.420074 0.666747 -0.628173 0.000000 0.000000 0.000000 3.223648 -1.847535 1.044450 -3.121954 1.413458 -2.192522 -13.268595 -8.690362 8.867414 0.000000 0.000000 0.000000 3.582770 -1.840239 0.838256 -0.026584 -3.073179 -0.133430 -1.185884 0.629045 -0.913788 -37.254232 -2.200709 -57.295356 -166.894648 -81.448817 -164.641655 0.000000 0.000000 0.000000 5.148278 -1.332839 1.032139 0.691841 -6.838230 12.397999 -0.983589 3.733881 -0.475597 -47.313796 16.933610 54.285445 -175.347034 59.616767 174.624469 0.000000 0.000000 0.000000 
-0.237658 31.386475 -1.777069 0.000000 0.000000 0.000000 7.712189 2.772154 -4.573484 -4.653636 5.794402 11.172408 54.623137 3.096440 5.941974 24.720256 5.412160 2.704797 6.308344 -1.388803 -9.134371 0.000000 0.000000 0.000000 8.811403 2.380741 -5.055745 -44.882966 2.819393 -3.765720 40.227758 -0.582923 0.715146 6.904888 4.463696 -5.624382 -7.463070 -0.443742 -0.044383 0.000000 0.000000 0.000000 8.365412 0.924406 -3.379433 3.698298 -1.963364 6.544864 2.716586 -1.294326 0.247144 0.338154 0.813433 0.145107 0.000000 0.000000 0.000000 3.281565 -1.322863 0.549466 -2.155393 1.368132 -2.564161 -10.878730 -8.090580 9.188129 0.000000 0.000000 0.000000 3.869375 -1.270023 0.613636 0.094290 -5.336233 0.827397 -1.010696 1.152901 -1.147722 -46.579657 -8.239759 -56.861468 -146.075507 -86.724934 -144.164133 0.000000 0.000000 0.000000 5.213862 -1.042696 0.517811 0.655471 -6.644600 9.354152 -0.516255 2.211012 -0.221746 -57.128201 20.123880 55.154054 -174.557341 66.268148 174.077398 0.000000 0.000000 0.000000 
0.020618 32.212254 -1.445562 0.000000 0.000000 0.000000 5.998300 2.276260 -5.582923 -15.688791 7.507105 11.550885 64.459664 6.105291 4.148465 35.897842 4.866946 8.353249 8.472243 -1.860435 -6.657315 0.000000 0.000000 0.000000 7.266816 3.467370 -6.340174 -39.198671 2.990053 -1.457456 33.991703 0.037833 1.565158 11.353836 4.222071 -2.857087 -13.188269 -1.649700 0.079697 0.000000 0.000000 0.000000 6.614612 2.276434 -4.528412 5.680949 -0.787761 7.001793 3.215203 -0.895953 0.102926 0.498617 0.968476 0.613866 0.000000 0.000000 0.000000 3.543387 -0.922006 0.511077 -1.288179 1.269766 -2.898849 -8.587680 -7.481977 9.609426 0.000000 0.000000 0.000000 4.323797 -0.785251 0.769667 0.231833 -7.151072 2.454588 -1.051262 1.634858 -1.480780 -56.169311 -13.487003 -57.750943 -28.090589 -86.737392 -26.579638 0.000000 0.000000 0.000000 5.436006 -0.846403 0.417802 0.493922 -6.692656 5.115821 -0.525762 0.873937 -0.342409 -66.583034 21.879837 57.149060 -172.677646 75.050105 172.611448 0.000000 0.000000 0.000000 
0.160033 32.399757 -0.787321 0.000000 0.000000 0.000000 4.257383 1.883129 -6.225013 -26.936637 7.202341 10.229667 79.200784 9.086223 2.993322 38.536750 4.256588 13.887587 9.374525 -2.211529 -4.700343 0.000000 0.000000 0.000000 5.407822 4.569616 -7.008361 -35.019462 2.578243 1.130070 32.622011 0.719259 2.323240 10.979451 4.419151 -0.530594 -16.632957 -2.795944 -0.331862 0.000000 0.000000 0.000000 4.668130 3.355968 -5.616330 7.773719 0.036073 6.865443 3.915618 -0.639229 0.376899 0.642075 1.399282 0.786493 0.000000 0.000000 0.000000 3.945858 -0.689348 0.933585 -0.331214 1.100174 -3.161778 -6.541698 -6.871833 10.149839 0.000000 0.000000 0.000000 4.953252 -0.489360 1.281038 0.488097 -8.145409 4.889086 -1.190196 1.793171 -1.515441 -65.306608 -16.770806 -59.597785 -8.472322 -82.117008 -7.357994 0.000000 0.000000 0.000000 5.776606 -0.802216 0.691680 0.228667 -6.871786 -0.180089 -0.925040 -0.140595 -1.031498 -75.369232 21.633986 59.887379 -165.227344 84.677707 165.615012 0.000000 0.000000 0.000000 
0.065171 31.888956 0.087744 0.000000 0.000000 0.000000 2.616765 1.781355 -6.429491 -38.519006 4.790149 7.221433 95.221580 11.496986 2.031757 37.124670 3.647745 17.478464 9.458057 -2.159092 -2.994932 0.000000 0.000000 0.000000 3.331145 4.864476 -6.953825 -32.821654 1.379408 3.549435 35.736830 1.425161 2.766201 5.257474 4.704667 0.854800 -16.148256 -3.391733 -0.957677 0.000000 0.000000 0.000000 2.591346 4.160039 -6.398840 9.792709 0.461574 6.235747 4.637920 -0.556734 0.906827 0.573225 1.587630 0.585948 0.000000 0.000000 0.000000 4.314700 -0.665218 1.582418 0.880163 0.893586 -3.276541 -4.812022 -6.254307 10.784246 0.000000 0.000000 0.000000 5.557515 -0.429719 1.939462 0.826332 -8.335474 8.167972 -1.306621 1.810234 -1.041438 -73.215892 -17.763312 -61.776739 -3.456909 -78.841898 -2.736576 0.000000 0.000000 0.000000 6.127268 -0.887602 1.170374 -0.106359 -7.031239 -6.274631 -1.476344 -0.625753 -1.501188 -82.993874 19.359029 62.875197 -12.501066 86.660880 13.284341 0.000000 0.000000 0.000000 
